HIERARCHY
ROOT hip
{
  OFFSET 0 0 0
  CHANNELS 6 Xposition Yposition Zposition Zrotation Yrotation Xrotation
  JOINT abdomen
  {
    OFFSET 0 20.6881 -0.73152
    CHANNELS 3 Zrotation Xrotation Yrotation
    JOINT chest
    {
      OFFSET 0 11.7043 -0.48768
      CHANNELS 3 Zrotation Xrotation Yrotation
      JOINT neck
      {
        OFFSET 0 22.1894 -2.19456
        CHANNELS 3 Zrotation Xrotation Yrotation
        JOINT head
        {
          OFFSET -0.24384 7.07133 1.2192
          CHANNELS 3 Zrotation Xrotation Yrotation
          JOINT leftEye
          {
            OFFSET 4.14528 8.04674 8.04672
            CHANNELS 3 Zrotation Xrotation Yrotation
            End Site
            {
              OFFSET 1 0 0
            }
          }
          JOINT rightEye
          {
            OFFSET -3.6576 8.04674 8.04672
            CHANNELS 3 Zrotation Xrotation Yrotation
            End Site
            {
              OFFSET 1 0 0
            }
          }
        }
      }
      JOINT rCollar
      {
        OFFSET -2.68224 19.2634 -4.8768
        CHANNELS 3 Zrotation Xrotation Yrotation
        JOINT rShldr
        {
          OFFSET -8.77824 -1.95073 1.46304
          CHANNELS 3 Zrotation Xrotation Yrotation
          JOINT rForeArm
          {
            OFFSET -28.1742 -1.7115 0.48768
            CHANNELS 3 Zrotation Xrotation Yrotation
            JOINT rHand
            {
              OFFSET -22.5879 0.773209 7.07136
              CHANNELS 3 Zrotation Xrotation Yrotation
              JOINT rThumb1
              {
                OFFSET -1.2192 -0.487915 3.41376
                CHANNELS 3 Zrotation Xrotation Yrotation
                JOINT rThumb2
                {
                  OFFSET -3.37035 -0.52449 3.41376
                  CHANNELS 3 Zrotation Xrotation Yrotation
                  End Site
                  {
                    OFFSET -1.78271 -1.18214 1.43049
                  }
                }
              }
              JOINT rIndex1
              {
                OFFSET -7.75947 0.938293 5.60832
                CHANNELS 3 Zrotation Xrotation Yrotation
                JOINT rIndex2
                {
                  OFFSET -2.54057 -0.884171 1.56538
                  CHANNELS 3 Zrotation Xrotation Yrotation
                  End Site
                  {
                    OFFSET -1.62519 -0.234802 1.16502
                  }
                }
              }
              JOINT rMid1
              {
                OFFSET -8.24714 1.18213 3.41376
                CHANNELS 3 Zrotation Xrotation Yrotation
                JOINT rMid2
                {
                  OFFSET -3.10165 -0.590103 1.0647
                  CHANNELS 3 Zrotation Xrotation Yrotation
                  End Site
                  {
                    OFFSET -2.48547 -0.328903 0.83742
                  }
                }
              }
              JOINT rRing1
              {
                OFFSET -8.82822 0.546677 1.51678
                CHANNELS 3 Zrotation Xrotation Yrotation
                JOINT rRing2
                {
                  OFFSET -2.60934 -0.819778 -0.0198488
                  CHANNELS 3 Zrotation Xrotation Yrotation
                  End Site
                  {
                    OFFSET -2.33842 -0.294052 0.168128
                  }
                }
              }
              JOINT rPinky1
              {
                OFFSET -8.27202 -0.0477905 -0.4584
                CHANNELS 3 Zrotation Xrotation Yrotation
                JOINT rPinky2
                {
                  OFFSET -1.82734 -0.647385 -0.700984
                  CHANNELS 3 Zrotation Xrotation Yrotation
                  End Site
                  {
                    OFFSET -1.69225 -0.51767 -0.607171
                  }
                }
              }
            }
          }
        }
      }
      JOINT lCollar
      {
        OFFSET 2.68224 19.2634 -4.8768
        CHANNELS 3 Zrotation Xrotation Yrotation
        JOINT lShldr
        {
          OFFSET 8.77824 -1.95073 1.46304
          CHANNELS 3 Zrotation Xrotation Yrotation
          JOINT lForeArm
          {
            OFFSET 28.1742 -1.7115 0.48768
            CHANNELS 3 Zrotation Xrotation Yrotation
            JOINT lHand
            {
              OFFSET 22.5879 0.773209 7.07136
              CHANNELS 3 Zrotation Xrotation Yrotation
              JOINT lThumb1
              {
                OFFSET 1.2192 -0.487915 3.41376
                CHANNELS 3 Zrotation Xrotation Yrotation
                JOINT lThumb2
                {
                  OFFSET 3.37035 -0.52449 3.41376
                  CHANNELS 3 Zrotation Xrotation Yrotation
                  End Site
                  {
                    OFFSET 1.78271 -1.18214 1.43049
                  }
                }
              }
              JOINT lIndex1
              {
                OFFSET 7.75947 0.938293 5.60832
                CHANNELS 3 Zrotation Xrotation Yrotation
                JOINT lIndex2
                {
                  OFFSET 2.54057 -0.884171 1.56538
                  CHANNELS 3 Zrotation Xrotation Yrotation
                  End Site
                  {
                    OFFSET 1.62519 -0.234802 1.16502
                  }
                }
              }
              JOINT lMid1
              {
                OFFSET 8.24714 1.18213 3.41376
                CHANNELS 3 Zrotation Xrotation Yrotation
                JOINT lMid2
                {
                  OFFSET 3.10165 -0.590103 1.0647
                  CHANNELS 3 Zrotation Xrotation Yrotation
                  End Site
                  {
                    OFFSET 2.48547 -0.328903 0.83742
                  }
                }
              }
              JOINT lRing1
              {
                OFFSET 8.82822 0.546677 1.51678
                CHANNELS 3 Zrotation Xrotation Yrotation
                JOINT lRing2
                {
                  OFFSET 2.60934 -0.819778 -0.0198488
                  CHANNELS 3 Zrotation Xrotation Yrotation
                  End Site
                  {
                    OFFSET 2.33842 -0.294052 0.168128
                  }
                }
              }
              JOINT lPinky1
              {
                OFFSET 8.27202 -0.0477905 -0.4584
                CHANNELS 3 Zrotation Xrotation Yrotation
                JOINT lPinky2
                {
                  OFFSET 1.82734 -0.647385 -0.700984
                  CHANNELS 3 Zrotation Xrotation Yrotation
                  End Site
                  {
                    OFFSET 1.69225 -0.51767 -0.607171
                  }
                }
              }
            }
          }
        }
      }
    }
  }
  JOINT rButtock
  {
    OFFSET -8.77824 4.35084 1.2192
    CHANNELS 3 Zrotation Xrotation Yrotation
    JOINT rThigh
    {
      OFFSET 0 -1.70687 -2.19456
      CHANNELS 3 Zrotation Xrotation Yrotation
      JOINT rShin
      {
        OFFSET 0 -36.8199 0.73152
        CHANNELS 3 Zrotation Xrotation Yrotation
        JOINT rFoot
        {
          OFFSET 0.73152 -45.1104 -5.12064
          CHANNELS 3 Zrotation Xrotation Yrotation
          End Site
          {
            OFFSET -1.1221 -3.69964 12.103
          }
        }
      }
    }
  }
  JOINT lButtock
  {
    OFFSET 8.77824 4.35084 1.2192
    CHANNELS 3 Zrotation Xrotation Yrotation
    JOINT lThigh
    {
      OFFSET 0 -1.70687 -2.19456
      CHANNELS 3 Zrotation Xrotation Yrotation
      JOINT lShin
      {
        OFFSET 0 -36.8199 0.73152
        CHANNELS 3 Zrotation Xrotation Yrotation
        JOINT lFoot
        {
          OFFSET -0.73152 -45.1104 -5.12064
          CHANNELS 3 Zrotation Xrotation Yrotation
          End Site
          {
            OFFSET 1.1221 -3.69964 12.103
          }
        }
      }
    }
  }
}
MOTION
Frames:	4
Frame Time:	0.00833333
1.51564 83.6356 -0.126472 -8.8776 8.9823 -2.4271 10.0297 4.08695 5.39937 0.782514 -2.41904 1.63569 4.37399 0.0800673 -0.288638 -6.61266 1.99728 -1.58252 -0.0 0.0 0.0 -0.0 0.0 0.0 -2.99623e-13 8.293e-14 1.43196e-13 79.053 25.2583 -6.98698 -17.8136 -10.4877 33.6033 -0.147295 -10.8761 -1.54735 1.25822e-09 -1.30234e-09 1.1937e-09 2.15863e-09 -2.2339e-09 2.07826e-09 1.25823e-09 -1.30234e-09 1.19369e-09 7.73091 5.47488 0.417314 1.25823e-09 -1.30234e-09 1.19371e-09 2.90554 0.965183 0.102902 1.25823e-09 -1.30235e-09 1.19371e-09 10.2786 0.731801 0.0259123 1.25822e-09 -1.30234e-09 1.19372e-09 2.22167 -0.733487 -0.20892 -2.99621e-13 8.29312e-14 1.43035e-13 -84.0248 32.6604 9.56887 16.6739 -9.32861 -31.1084 0.216588 -13.1411 1.88027 1.75019e-09 6.68163e-10 2.37035e-10 3.01709e-09 1.14676e-09 4.25026e-10 1.75019e-09 6.68161e-10 2.37049e-10 -7.73091 5.47488 -0.417314 1.75019e-09 6.68161e-10 2.3703e-10 -2.90554 0.965183 -0.102902 1.75018e-09 6.68162e-10 2.3703e-10 -10.2786 0.731801 -0.0259123 1.75019e-09 6.68163e-10 2.37023e-10 -2.22167 -0.733487 0.20892 -2.03217e-16 0.0 -3.88251e-19 16.3994 4.30784 -4.73821 -0.0139528 11.7586 0.28947 -3.92182 -6.37292 -19.792 2.03217e-16 0.0 3.88251e-19 12.6892 -37.7452 1.15275 0.220011 31.8872 -0.355672 1.43336 -2.28582 6.47931
1.53177 83.6384 0.0689939 -8.8609 8.8979 -2.4059 9.95808 3.99743 5.5728 0.734421 -2.35885 1.68002 4.31245 0.154813 -0.297601 -6.5246 1.95711 -1.58159 -0.0 0.0 0.0 -0.0 0.0 0.0 -2.44937e-13 1.12357e-13 4.51129e-14 79.0679 25.2521 -6.84175 -17.7528 -10.4235 33.4682 -0.14395 -10.7533 -1.52945 2.99369e-10 -5.02979e-11 8.30037e-10 5.03832e-10 -6.91513e-11 1.44106e-09 2.99372e-10 -5.02958e-11 8.30021e-10 7.73091 5.47488 0.417314 2.9937e-10 -5.03002e-11 8.30035e-10 2.90554 0.965183 0.102902 2.99372e-10 -5.0301e-11 8.30041e-10 10.2786 0.731801 0.0259123 2.99362e-10 -5.0296e-11 8.3005e-10 2.22167 -0.733487 -0.20892 -2.44967e-13 1.12359e-13 4.49288e-14 -84.0324 32.4326 9.6967 16.6744 -9.32916 -31.1096 0.215097 -13.0967 1.8737 6.1443e-10 1.06335e-10 4.63215e-10 1.05288e-09 1.75156e-10 8.06691e-10 6.14425e-10 1.06334e-10 4.63224e-10 -7.73091 5.47488 -0.417314 6.1443e-10 1.06333e-10 4.63211e-10 -2.90554 0.965183 -0.102902 6.14418e-10 1.06334e-10 4.63208e-10 -10.2786 0.731801 -0.0259123 6.1443e-10 1.06334e-10 4.632e-10 -2.22167 -0.733487 0.20892 -2.03217e-16 0.0 -3.88251e-19 16.3704 4.55766 -4.69845 -0.0137668 11.5239 0.281402 -3.90871 -6.36428 -19.7255 2.03217e-16 0.0 3.88251e-19 12.4745 -37.5276 0.835772 0.210054 31.1506 -0.337858 1.47248 -2.43171 6.69331
1.54892 83.6402 0.264773 -8.8436 8.7992 -2.3817 9.89515 3.90536 5.73908 0.686789 -2.30714 1.72249 4.25786 0.217097 -0.305102 -6.45951 1.94743 -1.57769 -0.0 0.0 0.0 -0.0 0.0 0.0 -2.18546e-13 1.34576e-13 -3.48867e-14 79.0837 25.2484 -6.69613 -17.6903 -10.3576 33.3291 -0.14066 -10.6313 -1.51169 3.70153e-11 2.66276e-10 4.99299e-10 5.3351e-11 4.74895e-10 8.65586e-10 3.70185e-11 2.66279e-10 4.9928e-10 7.73091 5.47488 0.417314 3.70131e-11 2.66276e-10 4.99293e-10 2.90554 0.965183 0.102902 3.70152e-11 2.66276e-10 4.99299e-10 10.2786 0.731801 0.0259123 3.70073e-11 2.66278e-10 4.99309e-10 2.22167 -0.733487 -0.20892 -2.18596e-13 1.34578e-13 -3.50855e-14 -84.0483 32.2073 9.83949 16.6767 -9.33151 -31.1146 0.213978 -13.0632 1.86873 2.13608e-10 3.01854e-11 4.90505e-10 3.60616e-10 4.43528e-11 8.50576e-10 2.13603e-10 3.01839e-11 4.90512e-10 -7.73091 5.47488 -0.417314 2.13608e-10 3.01836e-11 4.90502e-10 -2.90554 0.965183 -0.102902 2.13596e-10 3.01846e-11 4.90498e-10 -10.2786 0.731801 -0.0259123 2.13608e-10 3.01843e-11 4.90489e-10 -2.22167 -0.733487 0.20892 -2.03217e-16 0.0 -3.88251e-19 16.3455 4.79989 -4.65651 -0.0135914 11.2939 0.273381 -3.89437 -6.3514 -19.659 2.03217e-16 0.0 3.88251e-19 12.2727 -37.3214 0.534548 0.200844 30.4451 -0.320993 1.51496 -2.5725 6.92563
1.56352 83.6391 0.458222 -8.8372 8.7052 -2.3539 9.84339 3.8108 5.89581 0.639704 -2.26592 1.76245 4.20739 0.265825 -0.311649 -6.41985 1.97586 -1.57032 -0.0 0.0 0.0 -0.0 0.0 0.0 -2.4618e-13 1.52569e-13 -1.00111e-13 79.0994 25.2506 -6.54923 -17.6244 -10.2886 33.1829 -0.137309 -10.5063 -1.4935 1.01204e-09 -1.08114e-09 1.43043e-10 1.74303e-09 -1.86484e-09 2.54046e-10 1.01204e-09 -1.08114e-09 1.43024e-10 7.73091 5.47488 0.417314 1.01203e-09 -1.08114e-09 1.43035e-10 2.90554 0.965183 0.102902 1.01204e-09 -1.08114e-09 1.43042e-10 10.2786 0.731801 0.0259123 1.01203e-09 -1.08114e-09 1.43051e-10 2.22167 -0.733487 -0.20892 -2.4623e-13 1.5257e-13 -1.00309e-13 -84.0763 31.9848 10.0047 16.6827 -9.33755 -31.1276 0.213277 -13.0422 1.86562 1.09979e-09 8.66079e-10 1.53942e-10 1.896e-09 1.4927e-09 2.75995e-10 1.09978e-09 8.66078e-10 1.53947e-10 -7.73091 5.47488 -0.417314 1.09979e-09 8.66078e-10 1.53937e-10 -2.90554 0.965183 -0.102902 1.09978e-09 8.66079e-10 1.53934e-10 -10.2786 0.731801 -0.0259123 1.09979e-09 8.66079e-10 1.53924e-10 -2.22167 -0.733487 0.20892 -2.03217e-16 0.0 -3.88251e-19 16.326 5.0325 -4.611 -0.0134507 11.0717 0.265335 -3.87862 -6.33308 -19.5926 2.03217e-16 0.0 3.88251e-19 12.0848 -37.1264 0.24791 0.192279 29.7708 -0.304925 1.56247 -2.70463 7.18901
